<?xml version="1.0" encoding="utf-8"?>
<!-- Generator: Adobe Illustrator 21.0.0, SVG Export Plug-In . SVG Version: 6.00 Build 0)  -->
<svg version="1.1" id="Layer_1" xmlns="http://www.w3.org/2000/svg" xmlns:xlink="http://www.w3.org/1999/xlink" x="0px" y="0px"
	 viewBox="0 0 121.6 121.7" style="enable-background:new 0 0 121.6 121.7;" xml:space="preserve">
<style type="text/css">
	.st0{fill:#FFCEBB;}
</style>
<g>
	<path class="st0" d="M11.5,78.5L1,76.9l-0.5-1.9l8.5-6.3l0.6,2.3l-1.8,1.3L8.8,76l2.2,0.3L11.5,78.5z M3.6,75.3l3,0.4L6,73.5
		L3.6,75.3z"/>
	<path class="st0" d="M10,50l-0.5,2.2L0,49.8c0.1-0.2,0.2-0.8,0.4-1.7c0.2-0.9,0.3-1.5,0.4-1.5c0.6-2.5,2-3.2,3.9-2.8
		C6,44.1,6.8,44.9,7,46.1l4.4-1.8l-0.7,2.6l-3.9,1.5l-0.2,0.8L10,50z M2.6,48.1l2.1,0.5l0.2-0.8c0.2-1,0-1.6-0.7-1.8
		c-0.7-0.2-1.1,0.2-1.4,1.1C2.8,47.2,2.7,47.5,2.6,48.1z"/>
	<path class="st0" d="M19.5,29.8L12,23.4l3.8-4.4l1.6,1.4L15.1,23l1.3,1.1l2.1-2.4l1.6,1.4L18,25.5l1.3,1.2l2.4-2.8l1.6,1.4
		L19.5,29.8z"/>
	<path class="st0" d="M34.8,6.8c0.5-1.3,1.5-2.2,3-2.7c1.4-0.6,2.7-0.6,4-0.1c1.3,0.5,2.2,1.5,2.7,2.9c0.5,1.4,0.5,2.7,0,3.9
		c-0.6,1.2-1.5,2.1-2.9,2.7c-1.4,0.6-2.7,0.6-4,0.1c-1.2-0.5-2.1-1.5-2.7-2.9C34.3,9.3,34.3,8,34.8,6.8z M38.5,11.5
		c0.7,0.3,1.4,0.3,2.2,0.1c0.8-0.3,1.4-0.8,1.6-1.5c0.3-0.7,0.2-1.5-0.1-2.3c-0.3-0.8-0.8-1.4-1.5-1.7s-1.4-0.3-2.2,0
		c-0.8,0.3-1.3,0.8-1.6,1.5S36.7,9,37,9.8C37.3,10.6,37.8,11.1,38.5,11.5z"/>
	<path class="st0" d="M63.2,9.7l1-9.7l2.2,0.2l-0.8,7.7l4,0.4l-0.2,2.1L63.2,9.7z"/>
	<path class="st0" d="M84.1,15.3l8.7-6l1.7,1.1l-1.9,10.4l-2-1.3l0.4-2.2l-3.3-2.1L86,16.5L84.1,15.3z M92.1,12.2l-2.4,1.7l1.8,1.2
		L92.1,12.2z"/>
	<path class="st0" d="M110.1,47l9.6-1.8l0.4,2.2l-3.5,3.7l4.6,2.1l0.4,2.1l-9.6,1.8l-0.4-2.2l6.1-1.1l-4.3-2l-0.1-0.3l3.2-3.4
		l-6.1,1.1L110.1,47z"/>
	<path class="st0" d="M118,78.2c0.6,1.2,0.6,2.6,0.1,4c-0.5,1.4-1.4,2.4-2.6,3c-1.2,0.6-2.5,0.6-4,0.1c-1.4-0.5-2.4-1.4-2.9-2.6
		c-0.6-1.2-0.6-2.6-0.1-4c0.5-1.4,1.4-2.4,2.6-3c1.2-0.6,2.5-0.6,4-0.1C116.4,76.1,117.4,77,118,78.2z M112,77.9
		c-0.7,0.3-1.2,0.9-1.5,1.6c-0.3,0.8-0.3,1.6,0.1,2.2c0.4,0.7,0.9,1.1,1.8,1.4c0.8,0.3,1.6,0.3,2.3,0c0.7-0.3,1.2-0.9,1.5-1.6
		c0.3-0.8,0.3-1.5-0.1-2.2c-0.3-0.7-0.9-1.2-1.7-1.5C113.5,77.6,112.7,77.6,112,77.9z"/>
	<path class="st0" d="M97,97.6l6.4,7.4l-0.1,0.1c-0.1,0.1-0.5,0.4-1,0.9c-0.6,0.5-0.9,0.9-1.1,1c-1.4,1.2-2.7,1.8-4,1.7
		s-2.4-0.7-3.3-1.7c-0.9-1.1-1.4-2.3-1.2-3.7c0.1-1.3,0.8-2.6,2.2-3.8c0.1-0.1,0.4-0.4,0.9-0.8c0.5-0.4,0.9-0.8,1.2-1L97,97.6z
		 M100.4,104.8l-3.7-4.2c-0.2,0.1-0.4,0.3-0.6,0.5c-1.5,1.3-1.7,2.9-0.5,4.3c1.1,1.3,2.8,1.3,4.2,0
		C100.1,105.2,100.3,105,100.4,104.8z"/>
	<path class="st0" d="M75.2,110.6l2.3,9.5l-5.6,1.4l-0.5-2l3.5-0.8l-0.4-1.7l-3.1,0.7l-0.5-2l3.1-0.7l-0.4-1.7l-3.6,0.9l-0.5-2
		L75.2,110.6z"/>
	<path class="st0" d="M52.1,112.1l-2.1,9.6l-2.2-0.5l1.6-7.5l-3.9-0.8l0.4-2.1L52.1,112.1z"/>
	<path class="st0" d="M26.8,105.5c0.6,1.1,1.3,2.7,0.2,4.1c-0.5,0.6-1.1,1-1.9,1.1s-1.6-0.2-2.3-0.7c-1-0.8-1.5-1.6-1.6-2.6l2-0.6
		c0.1,0.7,0.2,1,0.8,1.4c0.5,0.4,0.9,0.4,1.2,0c1-1.3-2.5-3.5-0.5-6c0.5-0.7,1.2-1,2-1.1c0.8,0,1.6,0.2,2.4,0.8
		c0.6,0.4,1,0.9,1.3,1.6s0.4,1.2,0.3,1.7l-1.9,0.4c0-0.8-0.5-1.7-1-2.1c-0.5-0.3-0.9-0.3-1.2,0C26.1,104,26.4,104.7,26.8,105.5z"/>
</g>
<g>
	<circle class="st0" cx="60.3" cy="61.2" r="17.7"/>
</g>
</svg>
